PathFileType	4	(X/Y/Z)	Kaydara																																																																																																																																																																																																																												
DataRate	CameraRate	NumFrames	NumMarkers	Units	OrigDataRate	OrigDataStartFrame	OrigNumFrames																																																																																																																																																																																																																								
60	60	4	74	mm	60	2163	203																																																																																																																																																																																																																								
Frame#	Time	N_lasi			N_rasi			N_rpsi			N_lpsi			N_fneck			N_bneck			N_fhead			N_rhead			N_lhead			N_rshld			N_relbtop			N_relbext			N_relblow			N_rwrext			N_rwrtop			N_rwrlow			N_lshld			N_lelblow			N_lelbtop			N_lwrext			N_lwrtop			N_lwrlow			N_rtopleg			N_ltopleg			N_rkneefr			N_rkneebk			N_rkneeis			N_lkneefr			N_lknssbk			N_lkneeis			N_rankfr			N_rankis			N_rankbk			N_lankfr			N_lankbk			N_lankis			D_lasi			D_rasi			D_lpsi			D_fneck			D_bneck			D_fhead			D_rhead			D_lhead			D_rshld			D_relbtop			D_relbext			D_relblow			D_rwrext			D_rwrtop			D_rwrlow			D_lshld			D_lelbext			D_lelblow			D_lelbtop			D_lwrext			D_lwrtop			D_lwrlow			D_rtopleg			D_ltopleg			D_rkneefr			D_rkneebk			D_rkneeis			D_lkneefr			D_lknssbk			D_lkneeis			D_rankfr			D_rankis			D_rankbk			D_lankfr			D_lankbk			D_lankis			D_rpsi			N_lelbext		
		X1	Y1	Z1	X2	Y2	Z2	X3	Y3	Z3	X4	Y4	Z4	X5	Y5	Z5	X6	Y6	Z6	X7	Y7	Z7	X8	Y8	Z8	X9	Y9	Z9	X10	Y10	Z10	X11	Y11	Z11	X12	Y12	Z12	X13	Y13	Z13	X14	Y14	Z14	X15	Y15	Z15	X16	Y16	Z16	X17	Y17	Z17	X18	Y18	Z18	X19	Y19	Z19	X20	Y20	Z20	X21	Y21	Z21	X22	Y22	Z22	X23	Y23	Z23	X24	Y24	Z24	X25	Y25	Z25	X26	Y26	Z26	X27	Y27	Z27	X28	Y28	Z28	X29	Y29	Z29	X30	Y30	Z30	X31	Y31	Z31	X32	Y32	Z32	X33	Y33	Z33	X34	Y34	Z34	X35	Y35	Z35	X36	Y36	Z36	X37	Y37	Z37	X38	Y38	Z38	X39	Y39	Z39	X40	Y40	Z40	X41	Y41	Z41	X42	Y42	Z42	X43	Y43	Z43	X44	Y44	Z44	X45	Y45	Z45	X46	Y46	Z46	X47	Y47	Z47	X48	Y48	Z48	X49	Y49	Z49	X50	Y50	Z50	X51	Y51	Z51	X52	Y52	Z52	X53	Y53	Z53	X54	Y54	Z54	X55	Y55	Z55	X56	Y56	Z56	X57	Y57	Z57	X58	Y58	Z58	X59	Y59	Z59	X60	Y60	Z60	X61	Y61	Z61	X62	Y62	Z62	X63	Y63	Z63	X64	Y64	Z64	X65	Y65	Z65	X66	Y66	Z66	X67	Y67	Z67	X68	Y68	Z68	X69	Y69	Z69	X70	Y70	Z70	X71	Y71	Z71	X72	Y72	Z72	X73	Y73	Z73	X74	Y74	Z74
																																																																																																																																																																																																																															
153	36.033	-518.16101	1276.19606	-69.6986	-503.47012	1289.68628	-300.02251	-241.38302	1250.73036	-355.88367	-268.13	1238.64616	4.64651	-385.25158	1608.228	-166.76306	-222.75837	1662.00531	-144.8604	-449.41517	1793.08228	-173.84216	-251.45792	1777.53754	-201.94304	-320.74173	1768.35953	-64.37075	-219.19573	1654.81003	-267.47213	-331.15677	1808.06931	-440.86494	-407.89791	1775.53802	-403.51448	-326.62193	1828.74496	-350.24406	-474.0633	2128.97247	-445.06458	-467.12448	2134.94507	-397.59621	-503.07034	2112.05612	-373.93669	-220.14137	1624.89044	-25.85786	-304.33512	1799.95361	94.11366	-323.75107	1764.03168	174.18522	-423.93936	2100.80521	178.80983	-398.02231	2111.32584	140.46454	-435.92831	2091.6687	106.04917	-399.89101	1092.85439	-437.81246	-365.4224	1060.27252	48.6413	-425.31605	562.76878	-259.51397	-318.74966	579.93343	-326.64127	-366.56193	565.23651	-164.79517	-379.37721	539.63589	-99.67751	-253.4304	555.57476	-39.58804	-253.61439	547.80117	-189.39684	-295.37262	140.19556	-271.49494	-298.24348	154.85647	-191.65083	-216.48346	141.45591	-215.17355	-331.83895	193.02095	-118.51356	-258.7158	185.40693	-75.28068	-294.7158	164.40693	-159.28068	-451.17996	1039.74693	1740.35294	-416.87454	1055.95184	1450.91202	-252.08691	1130.80292	1745.24948	-427.54116	1562.96646	1596.54709	-293.10873	1589.77982	1601.78162	-453.30147	1784.50684	1594.97437	-298.7966	1720.86578	1516.83502	-303.89616	1724.40643	1671.81564	-363.4877	1484.76074	1398.18146	-257.20276	1155.26283	1345.88806	-301.19816	1148.64006	1407.06421	-334.42513	1179.8262	1311.54282	-362.66556	924.98642	1314.56131	-413.23555	940.84251	1290.32867	-430.59292	956.59653	1339.50729	-376.38927	1500.96176	1826.41434	-322.07554	1167.35222	1799.32343	-331.20117	1200.27779	1884.91714	-257.15809	1181.62003	1855.2829	-327.99358	938.1282	1877.8125	-371.63445	944.78264	1876.52573	-381.37962	953.11958	1827.38724	-322.27112	1004.04739	1409.08478	-311.70734	1008.76877	1806.25153	-373.38825	455.6105	1450.04745	-273.30082	490.38902	1423.284	-282.04504	458.00205	1543.82492	-357.63008	448.55644	1771.54419	-244.65475	485.40001	1787.27341	-316.82949	443.87699	1680.10971	-323.57738	130.19215	1417.79144	-294.90513	126.34249	1482.60712	-243.4231	127.50921	1418.34778	-323.01579	134.92516	1792.45102	-249.96859	124.59074	1806.49643	-293.57553	123.89401	1733.15948	-222.03846	1144.91096	1527.5116	-393.84129	1750.73807	118.08738
154	36.05	-518.44597	1276.13159	-69.72519	-503.48892	1289.56955	-300.01743	-241.39036	1250.55145	-355.68882	-268.42119	1238.49663	4.6926	-385.25158	1608.228	-166.76306	-222.75837	1662.00531	-144.8604	-448.99914	1793.48633	-174.15646	-251.26825	1777.45316	-202.2484	-320.30655	1768.64822	-64.7398	-219.31122	1654.76761	-267.64549	-331.20953	1807.62787	-441.50543	-407.98607	1775.03616	-404.17141	-326.80321	1828.43719	-350.92331	-474.33754	2128.47733	-446.53053	-467.42455	2134.59778	-398.88584	-503.73959	2111.60416	-375.20538	-220.51428	1624.85214	-25.41688	-304.85609	1799.63165	95.05604	-324.08165	1763.5408	175.09979	-424.80522	2100.112	180.45151	-398.80726	2110.6665	142.12952	-436.89056	2091.20041	107.76041	-399.91642	1092.73071	-437.77603	-365.58144	1060.19394	48.69003	-425.31975	562.76093	-259.51946	-318.71044	579.94026	-326.57253	-366.62148	565.23529	-164.75899	-379.40331	539.62311	-99.65758	-253.48703	555.57529	-39.48348	-253.65181	547.81288	-189.2964	-295.37613	140.20815	-271.48539	-298.27656	154.87899	-191.62594	-216.5011	141.45632	-215.13962	-331.83846	193.00358	-118.47984	-258.77422	185.39381	-75.35633	-294.77422	164.39381	-159.35633	-451.18843	1039.80461	1740.50323	-416.97441	1055.85564	1450.86746	-252.08927	1130.82802	1745.46173	-427.18594	1562.91092	1596.61499	-292.61442	1589.90952	1601.91345	-453.17852	1784.30359	1594.91272	-298.5475	1721.03333	1517.07855	-303.81216	1724.62234	1671.94199	-362.30129	1485.06989	1398.6084	-258.42556	1155.33829	1342.85934	-303.83074	1149.28261	1402.94037	-334.20765	1183.00797	1307.5679	-372.10667	929.18427	1307.13257	-421.36135	947.425	1281.98898	-438.95977	963.2885	1331.00327	-375.56278	1500.71289	1826.11099	-321.74969	1167.81616	1800.65414	-330.53467	1200.74249	1886.21811	-256.65295	1181.99005	1856.52756	-328.86353	938.49838	1879.59885	-372.7129	945.59914	1878.49808	-381.99043	953.82011	1829.6524	-322.19093	1003.98216	1409.4281	-312.10606	1009.0593	1806.53442	-373.31123	455.56217	1450.23666	-273.21915	490.40745	1423.51883	-281.99453	457.92519	1543.93845	-357.63264	448.55328	1771.59943	-244.66356	485.42652	1787.49664	-316.75962	443.87074	1680.26703	-323.56125	130.18587	1417.85507	-294.90213	126.3182	1482.62131	-243.38873	127.49369	1418.3905	-323.10032	135.04552	1792.30865	-249.96712	124.58346	1806.53763	-293.55051	123.89163	1733.1929	-222.02394	1144.89494	1527.65411	-394.23164	1750.21637	119.06564
155	36.067	-518.73268	1276.03561	-69.76629	-503.54958	1289.45786	-300.04574	-241.43515	1250.31815	-355.45387	-268.75843	1238.28934	4.71751	-385.25158	1608.228	-166.76306	-222.75837	1662.00531	-144.8604	-448.63548	1793.84369	-174.50855	-251.55521	1777.65869	-202.34398	-319.82229	1768.9267	-65.17874	-219.43111	1654.6991	-267.8266	-331.29131	1807.09366	-442.20654	-408.08174	1774.68842	-404.86969	-326.96293	1828.13004	-351.73664	-474.65744	2127.78351	-447.90604	-467.88918	2133.9856	-400.34157	-503.9484	2111.10519	-376.7157	-220.75974	1624.76105	-25.05178	-305.40447	1799.24744	96.13518	-324.48723	1762.83447	176.07618	-425.8567	2099.30206	182.27039	-399.80473	2110.00778	143.9225	-437.92488	2090.61127	109.57911	-399.9905	1092.57668	-437.72987	-365.75294	1060.09354	48.68583	-425.34145	562.73273	-259.52106	-318.706	579.95716	-326.50906	-366.72901	565.21851	-164.69578	-379.42837	539.59698	-99.57665	-253.52324	555.59223	-39.37455	-253.66226	547.82646	-189.20977	-295.39358	140.21364	-271.45252	-298.27732	154.87874	-191.61488	-216.46887	141.49019	-215.12581	-331.84288	193.02752	-118.41687	-258.89029	185.404	-75.51469	-294.89029	164.404	-159.51469	-451.16276	1039.84543	1740.64667	-416.9574	1055.82298	1450.89432	-252.23217	1130.76782	1745.56152	-426.8177	1562.85324	1596.55609	-292.31695	1590.03906	1601.9931	-453.18012	1784.09515	1594.73618	-298.21436	1721.10504	1517.35016	-303.83266	1724.76898	1672.06619	-361.063	1485.52826	1398.8974	-259.60648	1155.60104	1339.21295	-307.00912	1150.27359	1398.44894	-333.97709	1186.47301	1303.4465	-382.30534	934.48158	1298.89404	-430.26737	955.36179	1272.95029	-448.02349	971.61896	1321.87454	-374.81083	1500.56641	1825.96893	-321.35963	1168.37746	1801.73676	-329.76723	1201.66115	1887.48764	-256.1204	1182.10129	1857.30774	-329.87148	939.02336	1882.87308	-373.55289	946.14746	1881.95389	-383.48103	954.79942	1833.22891	-322.12868	1003.95454	1409.69193	-312.95956	1009.20135	1806.71722	-373.25272	455.54874	1450.37872	-273.05685	490.41264	1423.55865	-281.86893	457.88963	1544.17114	-357.59724	448.52196	1771.77307	-244.68298	485.4113	1787.62894	-316.76472	443.86547	1680.49042	-323.54782	130.1714	1417.9599	-294.86868	126.26982	1482.66373	-243.35194	127.51534	1418.38165	-323.05687	134.94406	1792.42493	-249.9687	124.55072	1806.56219	-293.5001	123.88641	1733.21289	-222.0405	1144.89235	1527.9184	-394.74663	1749.62006	120.09786
156	36.083	-519.077	1275.93773	-69.80948	-503.6404	1289.32907	-300.02254	-241.5192	1250.06157	-355.20504	-269.12542	1238.04802	4.78375	-385.25158	1608.228	-166.76306	-222.75837	1662.00531	-144.8604	-448.31364	1794.13559	-174.8781	-251.0363	1776.98364	-202.60515	-319.63255	1769.14749	-65.39231	-219.61029	1654.58939	-267.93535	-331.31264	1806.60645	-442.92698	-408.13835	1774.24927	-405.61451	-327.12795	1827.88559	-352.51987	-474.80221	2127.36618	-449.15405	-468.07369	2133.57132	-401.56765	-504.38473	2110.59387	-377.98523	-221.03825	1624.59061	-24.46906	-305.98036	1798.77625	97.19176	-324.82162	1762.18048	177.06461	-426.68385	2098.44727	184.06538	-400.86876	2109.37363	145.76917	-439.0807	2090.01953	111.41361	-400.15701	1092.37869	-437.67033	-366.00819	1059.95529	48.61043	-425.35923	562.72594	-259.43205	-318.72046	579.95228	-326.4172	-366.69506	565.19665	-164.64703	-379.42528	539.5586	-99.49237	-253.54027	555.58228	-39.30418	-253.71647	547.81395	-189.11022	-295.3657	140.22426	-271.42912	-298.27885	154.87181	-191.59317	-216.48977	141.49553	-215.07256	-331.87416	193.02393	-118.40178	-258.8916	185.40754	-75.44551	-294.8916	164.40754	-159.44551	-451.17092	1039.89555	1740.78552	-416.86871	1055.80231	1450.94208	-252.01771	1130.84381	1745.92697	-426.51104	1562.7681	1596.50574	-292.14968	1590.16281	1602.04346	-453.11771	1784.04572	1594.63257	-297.81214	1721.11954	1517.67517	-303.86032	1724.81216	1672.22336	-359.75094	1486.18149	1399.17542	-260.92817	1156.10397	1335.12634	-308.05098	1151.02722	1393.99963	-333.73566	1190.51514	1299.03	-393.59985	941.13525	1289.98993	-439.74392	964.77692	1263.42117	-457.53735	981.40945	1312.21512	-373.60218	1500.27328	1825.83755	-320.74375	1168.86063	1803.03543	-328.7281	1202.46559	1888.88718	-255.40783	1182.17041	1858.38989	-331.33163	939.74007	1887.24594	-375.16716	947.24831	1886.64932	-385.37922	955.75607	1837.78656	-321.88828	1004.01436	1409.75479	-313.67815	1009.26193	1807.11731	-373.31085	455.61348	1450.37323	-272.96127	490.42675	1423.68591	-281.85839	457.79819	1544.23691	-357.57999	448.53031	1772.10464	-244.67896	485.41389	1787.78244	-316.78869	443.81992	1680.75241	-323.56857	130.14895	1418.08075	-294.84739	126.27717	1482.76276	-243.29947	127.52672	1418.37631	-323.07842	134.92154	1792.51221	-249.98449	124.56744	1806.63284	-293.52959	123.91639	1733.30856	-222.06118	1144.88693	1528.26584	-395.07122	1749.12369	121.16488
